<?xml version="1.0" standalone="no"?>
<!DOCTYPE svg PUBLIC "-//W3C//DTD SVG 20010904//EN"
 "http://www.w3.org/TR/2001/REC-SVG-20010904/DTD/svg10.dtd">
<svg version="1.0" xmlns="http://www.w3.org/2000/svg"
 width="1138.000000pt" height="1280.000000pt" viewBox="0 0 1138.000000 1280.000000"
 preserveAspectRatio="xMidYMid meet">
<metadata>
Created by potrace 1.15, written by Peter Selinger 2001-2017
</metadata>
<g transform="translate(0.000000,1280.000000) scale(0.100000,-0.100000)"
fill="#000000" stroke="none">
<path d="M4232 12789 c-304 -54 -664 -315 -1039 -754 -160 -187 -268 -416
-444 -949 -194 -585 -331 -828 -576 -1023 -70 -56 -93 -80 -93 -97 0 -29 32
-40 78 -26 18 5 32 7 32 5 0 -2 -31 -26 -69 -54 -81 -61 -141 -124 -141 -149
0 -34 35 -53 126 -67 106 -18 154 -33 154 -48 0 -7 -32 -77 -71 -157 -297
-609 -382 -857 -525 -1535 -99 -472 -152 -622 -292 -835 -99 -149 -221 -266
-537 -510 -255 -197 -349 -280 -479 -420 -163 -177 -272 -365 -323 -555 -23
-89 -26 -119 -26 -265 -1 -119 4 -185 16 -237 86 -374 322 -680 685 -888 231
-132 589 -238 947 -280 172 -20 491 -20 635 0 193 27 383 96 520 188 30 20 55
35 57 34 1 -2 -13 -41 -33 -88 -88 -209 -188 -548 -349 -1189 -148 -586 -262
-965 -336 -1113 -50 -100 -78 -140 -180 -257 -102 -118 -152 -194 -216 -335
-84 -184 -137 -372 -174 -620 -23 -158 -23 -205 -1 -269 31 -91 102 -114 277
-91 201 27 283 28 368 6 43 -11 117 -36 165 -55 368 -148 933 -194 1417 -115
296 48 431 124 451 254 20 140 -56 220 -362 381 -375 196 -658 394 -782 548
-99 122 -162 278 -162 400 0 126 41 278 117 434 48 99 245 432 380 642 76 119
142 229 508 855 218 374 296 497 401 638 107 143 262 300 370 374 123 84 304
150 304 110 0 -9 -44 -110 -99 -224 -155 -327 -185 -405 -396 -1033 -73 -217
-167 -494 -208 -615 -41 -121 -96 -285 -122 -365 -96 -297 -187 -517 -235
-568 -12 -12 -39 -33 -60 -47 -21 -13 -47 -37 -58 -53 -53 -73 -169 -374 -195
-502 -50 -242 -23 -382 87 -456 85 -58 288 -116 471 -134 185 -19 336 12 436
91 20 16 42 29 49 29 6 0 60 -36 118 -80 163 -122 227 -140 512 -140 280 0
504 34 684 103 97 36 170 102 182 161 16 87 -20 170 -97 225 -40 29 -69 41
-279 117 -139 50 -212 101 -532 370 -393 331 -424 366 -422 494 1 77 12 116
68 230 65 132 182 313 457 710 606 875 744 1121 966 1715 122 327 172 521 180
705 6 133 -4 198 -48 289 -40 86 -79 133 -154 186 -151 108 -374 174 -695 205
-529 51 -911 60 -1385 31 -647 -39 -875 -24 -875 58 0 15 14 49 31 77 47 72
375 394 520 509 69 55 175 139 235 186 248 196 351 321 439 534 63 152 77 244
76 528 -1 280 9 402 45 524 50 173 157 335 296 450 84 68 116 73 536 83 413
10 391 7 801 109 234 59 470 98 822 136 179 19 677 90 759 108 92 21 875 218
1120 283 333 88 387 97 545 98 l140 1 190 -57 c233 -70 352 -92 460 -85 107 7
169 30 203 75 60 79 73 87 192 121 342 97 483 154 551 222 69 69 43 136 -62
158 -54 12 -349 13 -517 2 -56 -3 -102 -4 -102 -1 0 3 25 16 56 29 164 71 144
161 -37 161 -42 0 -236 -12 -430 -26 -311 -23 -392 -25 -664 -20 -340 6 -446
13 -760 53 -180 23 -246 27 -465 26 -423 0 -1933 -21 -1960 -27 -14 -3 -68
-10 -120 -16 -135 -16 -190 -32 -389 -112 -316 -126 -357 -137 -691 -174 -187
-22 -509 -24 -588 -5 -85 21 -112 79 -63 134 24 28 43 36 123 51 79 15 150 44
185 74 40 35 124 154 162 231 114 226 227 533 237 641 3 36 23 119 45 185 58
180 78 266 96 413 63 505 -177 828 -682 917 -107 19 -408 28 -483 14z"/>
</g>
</svg>
